<svg width="20" height="20" viewBox="0 0 20 20" fill="none" xmlns="http://www.w3.org/2000/svg">
<g clip-path="url(#clip0_4_44)">
<path d="M10.6551 15.3659C10.0996 14.9688 9.37009 15.5461 9.11225 16.1683C8.88796 16.7108 9.16424 17.2093 9.71932 17.3694C10.0294 17.4581 10.3606 17.4363 10.6563 17.3078C11.3384 16.9862 11.2693 16.1947 10.91 15.6417C10.843 15.5346 10.7565 15.4411 10.6551 15.3659Z" fill="#F1E0CB"/>
<path d="M15.403 9.9979C15.2394 9.99851 15.076 10.0121 14.9146 10.0386C14.3322 10.116 13.7654 10.2831 13.2343 10.5341C12.9672 10.6699 12.7182 10.8393 12.4469 10.9676C12.1736 11.0967 11.8323 11.0925 11.5812 11.2552C11.4193 11.3551 11.3021 11.5135 11.2538 11.6975C11.1724 12.0434 11.3997 12.318 11.6856 12.4765C12.1019 12.707 12.5228 12.9301 12.9324 13.1716C13.2783 13.3757 13.6657 13.6818 14.0933 13.6155C14.3951 13.5686 14.6572 13.2973 14.8815 13.1074C15.1702 12.8562 15.4445 12.589 15.7032 12.3071C16.0176 11.9742 16.4918 11.6237 16.6536 11.1839C16.6963 11.0392 16.6971 10.8854 16.6559 10.7403C16.6147 10.5951 16.5332 10.4646 16.4209 10.3639C16.2843 10.2379 16.1239 10.1406 15.949 10.0778C15.7742 10.0149 15.5885 9.98774 15.403 9.9979Z" fill="#F1E0CB"/>
<path d="M19.7333 9.79079C19.7325 9.76439 19.7321 9.73839 19.7312 9.7124C19.73 9.66964 19.7283 9.62646 19.7266 9.58369C19.7233 9.512 19.7199 9.44031 19.7149 9.36904C19.714 9.35352 19.7132 9.33885 19.7124 9.32334C19.709 9.27303 19.7048 9.2223 19.7006 9.172L19.6981 9.14307C19.4975 6.87567 18.5088 4.7502 16.904 3.13594C15.2992 1.52168 13.1795 0.520627 10.9133 0.306709C10.9045 0.30587 10.8957 0.30545 10.8869 0.304614C10.8047 0.297068 10.7217 0.290778 10.6387 0.285748C10.6152 0.283653 10.5922 0.282393 10.5691 0.281137C10.4979 0.277362 10.4258 0.273592 10.3545 0.271076C10.3293 0.270237 10.3046 0.269398 10.2799 0.268561C10.1868 0.266045 10.0937 0.263947 10.0002 0.263947C9.92686 0.263947 9.85349 0.265206 9.78054 0.266881C9.74364 0.26772 9.70633 0.269397 9.66902 0.270236C9.63716 0.271486 9.60571 0.272331 9.57469 0.27359C9.51893 0.276525 9.46317 0.279457 9.40783 0.282393C9.40196 0.282814 9.39693 0.283232 9.39106 0.283232C7.06791 0.429052 4.87386 1.40228 3.20652 3.02656C1.53917 4.65083 0.508866 6.81866 0.30231 9.1372C0.27632 9.41935 0.26416 9.68976 0.26416 10C0.26416 10.0759 0.264999 10.1518 0.267095 10.2272L0.26961 10.3086C0.27087 10.3564 0.272547 10.4041 0.274641 10.4519C0.276737 10.4859 0.278416 10.5194 0.280091 10.5534C0.282187 10.5932 0.285123 10.6331 0.287637 10.6733C0.290152 10.7114 0.292668 10.75 0.296023 10.7882C0.298538 10.8217 0.301473 10.8557 0.304827 10.8892C0.308599 10.932 0.312373 10.9747 0.316985 11.0175C0.31992 11.0477 0.323695 11.0779 0.326627 11.1085C0.329562 11.1399 0.332498 11.1709 0.336691 11.202L0.344237 11.2531C0.429137 11.9213 0.583844 12.5788 0.805823 13.2147C0.806326 13.2172 0.807026 13.2196 0.807918 13.2219C0.826365 13.2747 0.845648 13.3279 0.865354 13.3812C0.87206 13.3988 0.87877 13.4164 0.885057 13.434C0.901411 13.478 0.918182 13.5216 0.93537 13.5648C0.947527 13.5967 0.960106 13.6277 0.973102 13.6587C0.985679 13.6906 0.998259 13.7224 1.01167 13.7535C1.90491 15.9014 3.54023 17.6568 5.61956 18.6997C5.62567 18.7032 5.63197 18.7064 5.63842 18.7093C5.68747 18.7341 5.73736 18.7584 5.78725 18.7819C5.81995 18.7978 5.85307 18.8137 5.88577 18.8288C5.90171 18.8364 5.91764 18.8435 5.93315 18.851C7.20895 19.4365 8.5965 19.7384 10.0002 19.7361H10.0057C10.0866 19.7361 10.1679 19.7348 10.2484 19.7327C10.2614 19.7323 10.2736 19.7314 10.2857 19.7314C10.3574 19.7294 10.4287 19.7268 10.4991 19.7231C10.5025 19.7231 10.5058 19.7226 10.5092 19.7226C12.9121 19.5968 15.1833 18.5855 16.8846 16.8839C18.5859 15.1824 19.5969 12.9111 19.7224 10.5081C19.7229 10.5052 19.7229 10.5023 19.7233 10.4993C19.727 10.428 19.7296 10.3564 19.7312 10.2842L19.7325 10.2486C19.735 10.1664 19.7358 10.0834 19.7358 10.0004V10C19.7358 9.9304 19.735 9.86039 19.7333 9.79079ZM10.0002 18.4511C9.96458 18.4511 9.92936 18.4498 9.89415 18.4494C9.8518 18.449 9.7579 18.358 9.72184 18.3333C9.65476 18.2872 9.58824 18.2405 9.52228 18.1932C9.39776 18.1035 9.27535 18.0105 9.15628 17.9136C8.86252 17.6859 8.60489 17.4152 8.39214 17.1104C7.94119 16.4272 8.0242 15.6361 8.43611 14.9559C8.73021 14.4702 9.18899 14.0877 9.53676 13.6382C9.93325 13.1506 10.2338 12.5923 10.4224 11.9928C10.506 11.7256 10.5251 11.4424 10.4782 11.1664C10.4313 10.8904 10.3196 10.6295 10.1525 10.4049C9.74714 9.90606 9.00221 9.63864 8.40165 9.48181C8.32618 9.46211 8.24946 9.44618 8.17232 9.43318C8.00175 9.4067 7.8299 9.3892 7.65749 9.38077C7.03525 9.3454 6.41119 9.35871 5.79103 9.4206C5.24685 9.47343 4.67501 9.64238 4.15976 9.3791C3.71536 9.15271 3.31541 8.8475 2.82573 8.72005C2.44551 8.63344 2.05647 8.59151 1.66653 8.59512C1.85693 7.46725 2.27426 6.38976 2.89325 5.4279C3.51224 4.46603 4.32 3.63979 5.26763 2.99922C6.21526 2.35865 7.28304 1.91707 8.40631 1.70122C9.52958 1.48537 10.685 1.49973 11.8025 1.74345C11.8407 2.38783 12.426 2.78065 12.1245 3.46528C11.7178 4.38845 10.5721 4.66263 10.1033 5.53675C9.99525 5.7241 9.94255 5.93828 9.95138 6.1544C9.96021 6.37051 10.0302 6.57968 10.1532 6.75758C10.323 7.02379 10.4781 7.29909 10.6178 7.58223C10.8219 7.97716 11.042 8.49325 11.4462 8.72592C12.6284 9.40761 12.724 7.28499 13.5369 7.15083C13.9755 7.0783 14.2232 7.32649 14.4299 7.67656C14.6764 8.09328 14.8739 8.45803 15.3946 8.5599C15.7229 8.60686 16.0562 8.60686 16.3844 8.5599C16.5463 8.54439 18.2731 8.27146 18.2526 8.17881C18.5249 9.41354 18.5166 10.6936 18.2285 11.9248C17.9404 13.1559 17.3798 14.3067 16.5879 15.2924C15.796 16.2781 14.7931 17.0736 13.653 17.6203C12.5129 18.1669 11.2646 18.4509 10.0002 18.4511Z" fill="#F1E0CB"/>
</g>
<defs>
<clipPath id="clip0_4_44">
<rect width="20" height="20" fill="white"/>
</clipPath>
</defs>
</svg>
