<svg width="203" height="24" viewBox="0 0 203 24" fill="none" xmlns="http://www.w3.org/2000/svg">
<path d="M39.792 12.24C40.4427 12.3787 40.9653 12.704 41.36 13.216C41.7547 13.7173 41.952 14.2933 41.952 14.944C41.952 15.8827 41.6213 16.6293 40.96 17.184C40.3093 17.728 39.3973 18 38.224 18H32.992V6.768H38.048C39.1893 6.768 40.08 7.02933 40.72 7.552C41.3707 8.07467 41.696 8.784 41.696 9.68C41.696 10.3413 41.52 10.8907 41.168 11.328C40.8267 11.7653 40.368 12.0693 39.792 12.24ZM35.728 11.312H37.52C37.968 11.312 38.3093 11.216 38.544 11.024C38.7893 10.8213 38.912 10.528 38.912 10.144C38.912 9.76 38.7893 9.46667 38.544 9.264C38.3093 9.06133 37.968 8.96 37.52 8.96H35.728V11.312ZM37.744 15.792C38.2027 15.792 38.5547 15.6907 38.8 15.488C39.056 15.2747 39.184 14.9707 39.184 14.576C39.184 14.1813 39.0507 13.872 38.784 13.648C38.528 13.424 38.1707 13.312 37.712 13.312H35.728V15.792H37.744ZM56.2589 6.768V18H53.5229V11.264L51.0109 18H48.8029L46.2749 11.248V18H43.5389V6.768H46.7709L49.9229 14.544L53.0429 6.768H56.2589ZM73.6824 6.768L70.7544 18H67.4424L65.6504 10.608L63.7944 18H60.4824L57.6344 6.768H60.5624L62.1784 14.944L64.1784 6.768H67.1864L69.1064 14.944L70.7384 6.768H73.6824ZM79.8211 8.144C79.3411 8.144 78.9465 8.00533 78.6371 7.728C78.3385 7.44 78.1891 7.088 78.1891 6.672C78.1891 6.24533 78.3385 5.89333 78.6371 5.616C78.9465 5.328 79.3411 5.184 79.8211 5.184C80.2905 5.184 80.6745 5.328 80.9731 5.616C81.2825 5.89333 81.4371 6.24533 81.4371 6.672C81.4371 7.088 81.2825 7.44 80.9731 7.728C80.6745 8.00533 80.2905 8.144 79.8211 8.144ZM81.1811 9.072V18H78.4451V9.072H81.1811ZM88.6039 8.976C89.6492 8.976 90.4812 9.31733 91.0999 10C91.7292 10.672 92.0439 11.6 92.0439 12.784V18H89.3239V13.152C89.3239 12.5547 89.1692 12.0907 88.8599 11.76C88.5505 11.4293 88.1345 11.264 87.6119 11.264C87.0892 11.264 86.6732 11.4293 86.3639 11.76C86.0545 12.0907 85.8999 12.5547 85.8999 13.152V18H83.1639V9.072H85.8999V10.256C86.1772 9.86133 86.5505 9.552 87.0199 9.328C87.4892 9.09333 88.0172 8.976 88.6039 8.976ZM106.456 9.072L100.856 22.24H97.9118L99.9598 17.696L96.3277 9.072H99.3838L101.448 14.656L103.496 9.072H106.456ZM111.509 18.128C110.634 18.128 109.845 17.9413 109.141 17.568C108.448 17.1947 107.898 16.6613 107.493 15.968C107.098 15.2747 106.901 14.464 106.901 13.536C106.901 12.6187 107.104 11.8133 107.509 11.12C107.914 10.416 108.469 9.87733 109.173 9.504C109.877 9.13067 110.666 8.944 111.541 8.944C112.416 8.944 113.205 9.13067 113.909 9.504C114.613 9.87733 115.168 10.416 115.573 11.12C115.978 11.8133 116.181 12.6187 116.181 13.536C116.181 14.4533 115.973 15.264 115.557 15.968C115.152 16.6613 114.592 17.1947 113.877 17.568C113.173 17.9413 112.384 18.128 111.509 18.128ZM111.509 15.76C112.032 15.76 112.474 15.568 112.837 15.184C113.21 14.8 113.397 14.2507 113.397 13.536C113.397 12.8213 113.216 12.272 112.853 11.888C112.501 11.504 112.064 11.312 111.541 11.312C111.008 11.312 110.565 11.504 110.213 11.888C109.861 12.2613 109.685 12.8107 109.685 13.536C109.685 14.2507 109.856 14.8 110.197 15.184C110.549 15.568 110.986 15.76 111.509 15.76ZM126.449 9.072V18H123.713V16.784C123.435 17.1787 123.057 17.4987 122.577 17.744C122.107 17.9787 121.585 18.096 121.009 18.096C120.326 18.096 119.723 17.9467 119.201 17.648C118.678 17.3387 118.273 16.896 117.985 16.32C117.697 15.744 117.553 15.0667 117.553 14.288V9.072H120.273V13.92C120.273 14.5173 120.427 14.9813 120.737 15.312C121.046 15.6427 121.462 15.808 121.985 15.808C122.518 15.808 122.939 15.6427 123.249 15.312C123.558 14.9813 123.713 14.5173 123.713 13.92V9.072H126.449ZM131.15 10.56C131.47 10.0693 131.87 9.68533 132.35 9.408C132.83 9.12 133.363 8.976 133.95 8.976V11.872H133.198C132.515 11.872 132.003 12.0213 131.662 12.32C131.321 12.608 131.15 13.12 131.15 13.856V18H128.414V9.072H131.15V10.56ZM138.104 13.536C138.104 12.608 138.291 11.7973 138.664 11.104C139.048 10.4107 139.576 9.87733 140.248 9.504C140.931 9.13067 141.71 8.944 142.584 8.944C143.704 8.944 144.638 9.23733 145.384 9.824C146.142 10.4107 146.638 11.2373 146.872 12.304H143.96C143.715 11.6213 143.24 11.28 142.536 11.28C142.035 11.28 141.635 11.4773 141.336 11.872C141.038 12.256 140.888 12.8107 140.888 13.536C140.888 14.2613 141.038 14.8213 141.336 15.216C141.635 15.6 142.035 15.792 142.536 15.792C143.24 15.792 143.715 15.4507 143.96 14.768H146.872C146.638 15.8133 146.142 16.6347 145.384 17.232C144.627 17.8293 143.694 18.128 142.584 18.128C141.71 18.128 140.931 17.9413 140.248 17.568C139.576 17.1947 139.048 16.6613 138.664 15.968C138.291 15.2747 138.104 14.464 138.104 13.536ZM152.4 18.128C151.525 18.128 150.736 17.9413 150.032 17.568C149.338 17.1947 148.789 16.6613 148.384 15.968C147.989 15.2747 147.792 14.464 147.792 13.536C147.792 12.6187 147.994 11.8133 148.4 11.12C148.805 10.416 149.36 9.87733 150.064 9.504C150.768 9.13067 151.557 8.944 152.432 8.944C153.306 8.944 154.096 9.13067 154.8 9.504C155.504 9.87733 156.058 10.416 156.464 11.12C156.869 11.8133 157.072 12.6187 157.072 13.536C157.072 14.4533 156.864 15.264 156.448 15.968C156.042 16.6613 155.482 17.1947 154.768 17.568C154.064 17.9413 153.274 18.128 152.4 18.128ZM152.4 15.76C152.922 15.76 153.365 15.568 153.728 15.184C154.101 14.8 154.288 14.2507 154.288 13.536C154.288 12.8213 154.106 12.272 153.744 11.888C153.392 11.504 152.954 11.312 152.432 11.312C151.898 11.312 151.456 11.504 151.104 11.888C150.752 12.2613 150.576 12.8107 150.576 13.536C150.576 14.2507 150.746 14.8 151.088 15.184C151.44 15.568 151.877 15.76 152.4 15.76ZM167.339 9.072V18H164.603V16.784C164.326 17.1787 163.947 17.4987 163.467 17.744C162.998 17.9787 162.475 18.096 161.899 18.096C161.217 18.096 160.614 17.9467 160.091 17.648C159.569 17.3387 159.163 16.896 158.875 16.32C158.587 15.744 158.443 15.0667 158.443 14.288V9.072H161.163V13.92C161.163 14.5173 161.318 14.9813 161.627 15.312C161.937 15.6427 162.353 15.808 162.875 15.808C163.409 15.808 163.83 15.6427 164.139 15.312C164.449 14.9813 164.603 14.5173 164.603 13.92V9.072H167.339ZM174.745 8.976C175.79 8.976 176.622 9.31733 177.241 10C177.87 10.672 178.185 11.6 178.185 12.784V18H175.465V13.152C175.465 12.5547 175.31 12.0907 175.001 11.76C174.691 11.4293 174.275 11.264 173.753 11.264C173.23 11.264 172.814 11.4293 172.505 11.76C172.195 12.0907 172.041 12.5547 172.041 13.152V18H169.305V9.072H172.041V10.256C172.318 9.86133 172.691 9.552 173.161 9.328C173.63 9.09333 174.158 8.976 174.745 8.976ZM185.062 15.68V18H183.67C182.678 18 181.904 17.76 181.35 17.28C180.795 16.7893 180.518 15.9947 180.518 14.896V11.344H179.43V9.072H180.518V6.896H183.254V9.072H185.046V11.344H183.254V14.928C183.254 15.1947 183.318 15.3867 183.446 15.504C183.574 15.6213 183.787 15.68 184.086 15.68H185.062ZM189.322 10.56C189.642 10.0693 190.042 9.68533 190.522 9.408C191.002 9.12 191.535 8.976 192.122 8.976V11.872H191.37C190.687 11.872 190.175 12.0213 189.834 12.32C189.492 12.608 189.322 13.12 189.322 13.856V18H186.586V9.072H189.322V10.56ZM202.55 9.072L196.95 22.24H194.006L196.054 17.696L192.421 9.072H195.478L197.542 14.656L199.59 9.072H202.55Z" fill="#F1E0CB"/>
<g clip-path="url(#clip0_4_48)">
<path d="M10.6551 17.3659C10.0996 16.9688 9.37009 17.5461 9.11225 18.1683C8.88796 18.7108 9.16424 19.2093 9.71932 19.3694C10.0294 19.4581 10.3606 19.4363 10.6563 19.3078C11.3384 18.9862 11.2693 18.1947 10.91 17.6417C10.843 17.5346 10.7565 17.4411 10.6551 17.3659Z" fill="#F1E0CB"/>
<path d="M15.403 11.9979C15.2394 11.9985 15.076 12.0121 14.9146 12.0386C14.3322 12.116 13.7654 12.2831 13.2343 12.5341C12.9672 12.6699 12.7182 12.8393 12.4469 12.9676C12.1736 13.0967 11.8323 13.0925 11.5812 13.2552C11.4193 13.3551 11.3021 13.5135 11.2538 13.6975C11.1724 14.0434 11.3997 14.318 11.6856 14.4765C12.1019 14.707 12.5228 14.9301 12.9324 15.1716C13.2783 15.3757 13.6657 15.6818 14.0933 15.6155C14.3951 15.5686 14.6572 15.2973 14.8815 15.1074C15.1702 14.8562 15.4445 14.589 15.7032 14.3071C16.0176 13.9742 16.4918 13.6237 16.6536 13.1839C16.6963 13.0392 16.6971 12.8854 16.6559 12.7403C16.6147 12.5951 16.5332 12.4646 16.4209 12.3639C16.2843 12.2379 16.1239 12.1406 15.949 12.0778C15.7742 12.0149 15.5885 11.9877 15.403 11.9979Z" fill="#F1E0CB"/>
<path d="M19.7333 11.7908C19.7325 11.7644 19.7321 11.7384 19.7312 11.7124C19.73 11.6696 19.7283 11.6265 19.7266 11.5837C19.7233 11.512 19.7199 11.4403 19.7149 11.369C19.714 11.3535 19.7132 11.3389 19.7124 11.3233C19.709 11.273 19.7048 11.2223 19.7006 11.172L19.6981 11.1431C19.4975 8.87567 18.5088 6.7502 16.904 5.13594C15.2992 3.52168 13.1795 2.52063 10.9133 2.30671C10.9045 2.30587 10.8957 2.30545 10.8869 2.30461C10.8047 2.29707 10.7217 2.29078 10.6387 2.28575C10.6152 2.28365 10.5922 2.28239 10.5691 2.28114C10.4979 2.27736 10.4258 2.27359 10.3545 2.27108C10.3293 2.27024 10.3046 2.2694 10.2799 2.26856C10.1868 2.26604 10.0937 2.26395 10.0002 2.26395C9.92686 2.26395 9.85349 2.26521 9.78054 2.26688C9.74364 2.26772 9.70633 2.2694 9.66902 2.27024C9.63716 2.27149 9.60571 2.27233 9.57469 2.27359C9.51893 2.27652 9.46317 2.27946 9.40783 2.28239C9.40196 2.28281 9.39693 2.28323 9.39106 2.28323C7.06791 2.42905 4.87386 3.40228 3.20652 5.02656C1.53917 6.65083 0.508866 8.81866 0.30231 11.1372C0.27632 11.4193 0.26416 11.6898 0.26416 12C0.26416 12.0759 0.264999 12.1518 0.267095 12.2272L0.26961 12.3086C0.27087 12.3564 0.272547 12.4041 0.274641 12.4519C0.276737 12.4859 0.278416 12.5194 0.280091 12.5534C0.282187 12.5932 0.285123 12.6331 0.287637 12.6733C0.290152 12.7114 0.292668 12.75 0.296023 12.7882C0.298538 12.8217 0.301473 12.8557 0.304827 12.8892C0.308599 12.932 0.312373 12.9747 0.316985 13.0175C0.31992 13.0477 0.323695 13.0779 0.326627 13.1085C0.329562 13.1399 0.332498 13.1709 0.336691 13.202L0.344237 13.2531C0.429137 13.9213 0.583844 14.5788 0.805823 15.2147C0.806326 15.2172 0.807026 15.2196 0.807918 15.2219C0.826365 15.2747 0.845648 15.3279 0.865354 15.3812C0.87206 15.3988 0.87877 15.4164 0.885057 15.434C0.901411 15.478 0.918182 15.5216 0.93537 15.5648C0.947527 15.5967 0.960106 15.6277 0.973102 15.6587C0.985679 15.6906 0.998259 15.7224 1.01167 15.7535C1.90491 17.9014 3.54023 19.6568 5.61956 20.6997C5.62567 20.7032 5.63197 20.7064 5.63842 20.7093C5.68747 20.7341 5.73736 20.7584 5.78725 20.7819C5.81995 20.7978 5.85307 20.8137 5.88577 20.8288C5.90171 20.8364 5.91764 20.8435 5.93315 20.851C7.20895 21.4365 8.5965 21.7384 10.0002 21.7361H10.0057C10.0866 21.7361 10.1679 21.7348 10.2484 21.7327C10.2614 21.7323 10.2736 21.7314 10.2857 21.7314C10.3574 21.7294 10.4287 21.7268 10.4991 21.7231C10.5025 21.7231 10.5058 21.7226 10.5092 21.7226C12.9121 21.5968 15.1833 20.5855 16.8846 18.8839C18.5859 17.1824 19.5969 14.9111 19.7224 12.5081C19.7229 12.5052 19.7229 12.5023 19.7233 12.4993C19.727 12.428 19.7296 12.3564 19.7312 12.2842L19.7325 12.2486C19.735 12.1664 19.7358 12.0834 19.7358 12.0004V12C19.7359 11.9304 19.735 11.8604 19.7333 11.7908ZM10.0002 20.4511C9.96458 20.4511 9.92936 20.4498 9.89415 20.4494C9.8518 20.449 9.7579 20.358 9.72184 20.3333C9.65476 20.2872 9.58824 20.2405 9.52228 20.1932C9.39776 20.1035 9.27535 20.0105 9.15628 19.9136C8.86252 19.6859 8.60489 19.4152 8.39214 19.1104C7.94119 18.4272 8.0242 17.6361 8.43611 16.9559C8.73021 16.4702 9.18899 16.0877 9.53676 15.6382C9.93325 15.1506 10.2338 14.5923 10.4224 13.9928C10.506 13.7256 10.5251 13.4424 10.4782 13.1664C10.4313 12.8904 10.3196 12.6295 10.1525 12.4049C9.74714 11.9061 9.00221 11.6386 8.40165 11.4818C8.32618 11.4621 8.24946 11.4462 8.17232 11.4332C8.00175 11.4067 7.8299 11.3892 7.65749 11.3808C7.03525 11.3454 6.41119 11.3587 5.79103 11.4206C5.24685 11.4734 4.67501 11.6424 4.15976 11.3791C3.71536 11.1527 3.31541 10.8475 2.82573 10.72C2.44551 10.6334 2.05647 10.5915 1.66653 10.5951C1.85693 9.46725 2.27426 8.38976 2.89325 7.4279C3.51224 6.46603 4.32 5.63979 5.26763 4.99922C6.21526 4.35865 7.28304 3.91707 8.40631 3.70122C9.52958 3.48537 10.685 3.49973 11.8025 3.74345C11.8407 4.38783 12.4259 4.78065 12.1245 5.46528C11.7178 6.38845 10.5721 6.66263 10.1033 7.53675C9.99525 7.7241 9.94255 7.93828 9.95138 8.1544C9.96021 8.37051 10.0302 8.57968 10.1532 8.75758C10.323 9.02379 10.4781 9.29909 10.6178 9.58223C10.8219 9.97716 11.042 10.4932 11.4462 10.7259C12.6284 11.4076 12.724 9.28499 13.5369 9.15083C13.9755 9.0783 14.2232 9.32649 14.4299 9.67656C14.6764 10.0933 14.8739 10.458 15.3946 10.5599C15.7229 10.6069 16.0562 10.6069 16.3844 10.5599C16.5463 10.5444 18.2731 10.2715 18.2526 10.1788C18.5249 11.4135 18.5166 12.6936 18.2285 13.9248C17.9404 15.1559 17.3798 16.3067 16.5879 17.2924C15.796 18.2781 14.7931 19.0736 13.653 19.6203C12.5129 20.1669 11.2646 20.4509 10.0002 20.4511Z" fill="#F1E0CB"/>
</g>
<defs>
<clipPath id="clip0_4_48">
<rect width="20" height="20" fill="white" transform="translate(0 2)"/>
</clipPath>
</defs>
</svg>
