<svg width="30" height="30" viewBox="0 0 30 30" fill="none" xmlns="http://www.w3.org/2000/svg">
<g clip-path="url(#clip0_8_36)">
<path d="M25.5 0H4.5C2.01472 0 0 2.01472 0 4.5V25.5C0 27.9853 2.01472 30 4.5 30H25.5C27.9853 30 30 27.9853 30 25.5V4.5C30 2.01472 27.9853 0 25.5 0Z" fill="url(#paint0_linear_8_36)"/>
<path d="M17.168 17.2267C16.6992 16.7579 15.9375 16.465 15 16.465C14.0625 16.465 13.3008 16.7579 12.832 17.2267C12.5977 17.5196 12.4805 17.754 12.4219 18.1056C12.3633 18.8087 12.4219 19.3946 12.4805 20.3907C12.6503 22.1015 12.9045 23.8028 13.2422 25.4884C13.418 26.0157 14.0625 26.5431 15 26.5431C15.9961 26.5431 16.582 26.0157 16.7578 25.4884C17.2062 23.0501 17.4803 20.5829 17.5781 18.1056C17.5195 17.754 17.4023 17.5196 17.168 17.2267ZM12.5391 13.0079C12.5391 13.6606 12.7983 14.2866 13.2599 14.7481C13.7214 15.2096 14.3473 15.4689 15 15.4689C15.6527 15.4689 16.2786 15.2096 16.7401 14.7481C17.2017 14.2866 17.4609 13.6606 17.4609 13.0079C17.4609 12.3552 17.2017 11.7293 16.7401 11.2678C16.2786 10.8063 15.6527 10.547 15 10.547C14.3473 10.547 13.7214 10.8063 13.2599 11.2678C12.7983 11.7293 12.5391 12.3552 12.5391 13.0079ZM15 3.33996C12.5033 3.32824 10.0834 4.20263 8.17085 5.80755C6.25829 7.41247 4.97711 9.64385 4.55526 12.1047C4.1334 14.5655 4.59822 17.0962 5.86703 19.2465C7.13583 21.3968 9.12633 23.0273 11.4844 23.8478C11.6016 23.8478 11.7187 23.7892 11.7187 23.672L11.543 22.6173C11.543 22.4415 11.4258 22.3829 11.3086 22.3243C9.37378 21.4767 7.78962 19.9891 6.82222 18.1113C5.85482 16.2335 5.56313 14.08 5.99613 12.0125C6.42914 9.94501 7.56047 8.08954 9.20008 6.75775C10.8397 5.42597 12.8877 4.69902 15 4.69902C17.1123 4.69902 19.1603 5.42597 20.7999 6.75775C22.4395 8.08954 23.5709 9.94501 24.0039 12.0125C24.4369 14.08 24.1452 16.2335 23.1778 18.1113C22.2104 19.9891 20.6262 21.4767 18.6914 22.3243C18.5742 22.3829 18.457 22.4415 18.457 22.6173L18.2812 23.672C18.2812 23.7892 18.3984 23.8478 18.5156 23.8478C20.8737 23.0273 22.8642 21.3968 24.133 19.2465C25.4018 17.0962 25.8666 14.5655 25.4447 12.1047C25.0229 9.64385 23.7417 7.41247 21.8292 5.80755C19.9166 4.20263 17.4967 3.32824 15 3.33996ZM14.7656 8.14465C15.9308 8.10281 17.081 8.41665 18.0635 9.04442C19.046 9.67219 19.8141 10.5842 20.2656 11.659C20.7172 12.7339 20.8309 13.9208 20.5916 15.0619C20.3522 16.203 19.7712 17.2441 18.9258 18.047C18.8086 18.1056 18.75 18.2814 18.8086 18.3986L18.75 19.5704C18.75 19.6876 18.8672 19.8048 18.9844 19.6876C20.2323 18.8262 21.1712 17.5875 21.6631 16.1532C22.1551 14.7189 22.1743 13.1647 21.7179 11.7187C21.2615 10.2727 20.3535 9.0111 19.1272 8.11918C17.9009 7.22727 16.421 6.75199 14.9047 6.76314C13.3885 6.77429 11.9157 7.27127 10.7027 8.18113C9.48968 9.09098 8.60032 10.3658 8.16521 11.8183C7.73009 13.2709 7.77213 14.8247 8.28516 16.2516C8.79819 17.6785 9.75518 18.9033 11.0156 19.7462C11.1328 19.8048 11.25 19.6876 11.25 19.5704V18.3986C11.25 18.2814 11.1914 18.1056 11.0742 18.047C10.2285 17.2839 9.6315 16.2844 9.36077 15.1779C9.09003 14.0714 9.15802 12.9091 9.55591 11.8418C9.9538 10.7744 10.6632 9.85126 11.5922 9.19201C12.5211 8.53277 13.6268 8.16787 14.7656 8.14465Z" fill="white"/>
</g>
<defs>
<linearGradient id="paint0_linear_8_36" x1="0" y1="3000" x2="0" y2="0" gradientUnits="userSpaceOnUse">
<stop stop-color="#832BC1"/>
<stop offset="1" stop-color="#F452FF"/>
</linearGradient>
<clipPath id="clip0_8_36">
<rect width="30" height="30" fill="white"/>
</clipPath>
</defs>
</svg>
