<svg width="30" height="30" viewBox="0 0 30 30" fill="none" xmlns="http://www.w3.org/2000/svg">
<g clip-path="url(#clip0_8_39)">
<path d="M14.9999 0C6.71588 0 0 6.71569 0 14.9998C0 23.2847 6.71588 30 14.9999 30C23.2843 30 30 23.2847 30 14.9998C30 6.71569 23.2843 0 14.9999 0Z" fill="#1ED760"/>
<path d="M21.5494 21.3092C21.2839 21.7445 20.717 21.8809 20.2832 21.6156C16.8139 19.4952 12.4473 19.0164 7.30463 20.191C6.80906 20.3046 6.31506 19.9941 6.20218 19.4987C6.08856 19.0032 6.398 18.5092 6.89463 18.3961C12.5224 17.1097 17.3497 17.6633 21.2438 20.0428C21.678 20.308 21.8147 20.8752 21.5494 21.3092Z" fill="white"/>
<path d="M23.3571 17.2862C23.023 17.8283 22.3141 17.9984 21.7727 17.6655C17.8026 15.2251 11.7482 14.518 7.05112 15.9438C6.44212 16.1278 5.7987 15.7845 5.61364 15.1764C5.43017 14.5674 5.77365 13.9252 6.38175 13.74C11.7476 12.1116 18.4181 12.9003 22.9782 15.7026C23.5196 16.0361 23.6901 16.7453 23.3571 17.2862Z" fill="white"/>
<path d="M23.5131 13.0974C18.7508 10.2692 10.8956 10.0092 6.3495 11.389C5.61928 11.6105 4.84727 11.1984 4.62622 10.4684C4.40499 9.73784 4.81658 8.96634 5.54713 8.74446C10.7659 7.1604 19.4412 7.46628 24.9236 10.7207C25.5804 11.1106 25.7956 11.9586 25.4064 12.6142C25.0169 13.2708 24.1681 13.4873 23.5131 13.0974Z" fill="white"/>
</g>
<defs>
<clipPath id="clip0_8_39">
<rect width="30" height="30" fill="white"/>
</clipPath>
</defs>
</svg>
