<svg width="30" height="30" viewBox="0 0 30 30" fill="none" xmlns="http://www.w3.org/2000/svg">
<g clip-path="url(#clip0_8_44)">
<path d="M15 30C23.2843 30 30 23.2843 30 15C30 6.71573 23.2843 0 15 0C6.71573 0 0 6.71573 0 15C0 23.2843 6.71573 30 15 30Z" fill="#FF6A22"/>
<path d="M4.46727 18.4053C4.46005 18.454 4.42529 18.4887 4.3801 18.4887C4.33491 18.4887 4.30015 18.454 4.2932 18.4042L4.13464 17.2176L4.2932 16.0111C4.29989 15.9608 4.33465 15.9261 4.3801 15.9261C4.42502 15.9261 4.45979 15.9608 4.46727 16.0111L4.65605 17.2189L4.46727 18.4053ZM5.27505 19.1262C5.26757 19.1778 5.23013 19.2139 5.18387 19.2139C5.13895 19.2139 5.09965 19.1778 5.0935 19.1262L4.88012 17.2173L5.0935 15.2656C5.09991 15.2154 5.13895 15.1779 5.18387 15.1779C5.23013 15.1779 5.26757 15.2146 5.27505 15.2656L5.51784 17.2173L5.27505 19.1262ZM6.14674 19.4495C6.14059 19.5115 6.09407 19.5556 6.03818 19.5556C5.98043 19.5556 5.9347 19.5115 5.92909 19.4495L5.72667 17.2189L5.92909 14.9036C5.93417 14.8407 5.98043 14.7958 6.03818 14.7958C6.09407 14.7958 6.14033 14.8407 6.14674 14.9036L6.37643 17.2189L6.14674 19.4495ZM7.02699 19.5203C7.02057 19.5915 6.96495 19.6452 6.89891 19.6452C6.83126 19.6452 6.77591 19.5915 6.77029 19.5203L6.57911 17.2189L6.77029 14.8399C6.77591 14.7683 6.83126 14.7145 6.89891 14.7145C6.96495 14.7145 7.02057 14.7683 7.02699 14.8399L7.24384 17.2189L7.02699 19.5203ZM7.91205 19.5388C7.9075 19.6214 7.84306 19.6826 7.76686 19.6826C7.68824 19.6826 7.62594 19.6214 7.62059 19.5388L7.43984 17.2186L7.62059 15.0116C7.62621 14.9295 7.68824 14.8683 7.76686 14.8683C7.8444 14.8683 7.9075 14.9295 7.91205 15.0105L8.11687 17.2186L7.91205 19.5388ZM8.80566 19.5401V19.5388C8.80031 19.6302 8.72785 19.7024 8.64068 19.7024C8.55325 19.7024 8.48078 19.63 8.4757 19.5401L8.30698 17.22L8.4757 13.6292C8.48078 13.5378 8.55325 13.4656 8.64068 13.4656C8.72812 13.4656 8.80058 13.538 8.80566 13.6279L8.99684 17.22L8.80566 19.5401ZM9.69259 19.5388V19.5374C9.68724 19.6385 9.60729 19.719 9.50836 19.719C9.4113 19.719 9.33108 19.6385 9.32627 19.5374L9.1669 17.2323L9.32627 12.8201C9.33108 12.719 9.4113 12.6391 9.50836 12.6391C9.60729 12.6391 9.68724 12.719 9.69259 12.8201L9.87201 17.2323L9.69259 19.5388ZM10.6127 19.5032V19.5019C10.6087 19.6144 10.5202 19.7019 10.4113 19.7019C10.3025 19.7019 10.214 19.6144 10.21 19.5032L10.0621 17.2216C10.0621 17.2216 10.21 12.4417 10.21 12.4404C10.2143 12.3292 10.3025 12.2401 10.4113 12.2401C10.5202 12.2401 10.6089 12.3292 10.6127 12.4404L10.7798 17.2216L10.6127 19.5032ZM11.5274 19.488C11.5231 19.6104 11.4271 19.7064 11.3076 19.7064C11.1878 19.7064 11.0918 19.6104 11.0876 19.489L10.9496 17.221L11.0876 12.2802C11.0918 12.1572 11.1878 12.0615 11.3076 12.0615C11.4271 12.0615 11.5234 12.1572 11.5274 12.2802L11.6806 17.221L11.5274 19.488ZM12.448 19.4679V19.4666C12.4438 19.5989 12.3403 19.704 12.209 19.704C12.0796 19.704 11.974 19.5989 11.9715 19.4679L11.8448 17.2216L11.9702 12.407C11.974 12.2727 12.0793 12.169 12.209 12.169C12.3403 12.169 12.4438 12.2727 12.448 12.407L12.5903 17.2216L12.448 19.4679ZM13.3761 19.4545V19.4527C13.374 19.5968 13.2601 19.7078 13.1195 19.7078C12.9777 19.7078 12.8654 19.5968 12.8612 19.4545L12.7467 17.2213L12.8614 12.5829C12.8657 12.4391 12.978 12.3265 13.1197 12.3265C13.2604 12.3265 13.3743 12.4391 13.3764 12.5829L13.5061 17.2227L13.3761 19.4545ZM14.323 19.219L14.3115 19.4377C14.3101 19.5139 14.278 19.5829 14.2291 19.6326C14.1788 19.6816 14.1099 19.7128 14.0369 19.7128C13.9518 19.7128 13.877 19.6738 13.8256 19.6123C13.7877 19.5677 13.7641 19.5099 13.7615 19.4492C13.7607 19.4465 13.7607 19.443 13.7607 19.4393C13.7607 19.4393 13.655 17.2237 13.655 17.22L13.7593 11.7537L13.7607 11.7013C13.7615 11.6056 13.8123 11.5203 13.8882 11.4714C13.9307 11.443 13.981 11.4265 14.0371 11.4265C14.0922 11.4265 14.1444 11.4436 14.1879 11.4738C14.262 11.5232 14.3104 11.6064 14.3117 11.7016L14.4278 17.2227L14.323 19.219ZM15.2431 19.4091V19.4064C15.2412 19.5679 15.1088 19.6995 14.9489 19.6995C14.7885 19.6995 14.6564 19.5679 14.6548 19.4078L14.5941 18.3302L14.5345 17.2237L14.6548 11.2326V11.2024C14.6551 11.1115 14.6979 11.0302 14.7639 10.9754C14.8144 10.9339 14.8794 10.9088 14.9489 10.9088C15.0043 10.9088 15.0556 10.924 15.0995 10.9497C15.1832 11.0021 15.2417 11.0949 15.2444 11.201L15.3746 17.2235L15.2431 19.4091ZM23.1933 19.7054C23.1933 19.7054 15.7912 19.7054 15.7835 19.7054C15.6236 19.689 15.4971 19.5618 15.4944 19.3979V10.9152C15.4971 10.7591 15.5508 10.6786 15.7519 10.6013C16.2709 10.4002 16.8586 10.2815 17.4627 10.2815C19.9266 10.2815 21.9457 12.1717 22.1599 14.5795C22.477 14.4472 22.8273 14.3717 23.1933 14.3717C24.6688 14.3717 25.8651 15.5686 25.8651 17.0451C25.8651 18.5214 24.6688 19.7054 23.1933 19.7054Z" fill="#F1F2F2"/>
</g>
<defs>
<clipPath id="clip0_8_44">
<rect width="30" height="30" fill="white"/>
</clipPath>
</defs>
</svg>
