<svg width="60" height="60" viewBox="0 0 60 60" fill="none" xmlns="http://www.w3.org/2000/svg">
<path d="M30 54C16.7673 54 6 43.2327 6 30C6 16.7673 16.7673 6 30 6C43.2327 6 54 16.7673 54 30C54 43.2327 43.2327 54 30 54Z" stroke="white" stroke-width="2"/>
<path d="M43.095 30C43.095 22.7663 37.2325 16.905 30 16.905C22.7675 16.905 16.905 22.7663 16.905 30C16.905 37.2338 22.7663 43.095 30 43.095C37.2338 43.095 43.095 37.2338 43.095 30Z" fill="white"/>
<path d="M30 17.5C23.1762 17.6763 17.6763 23.1775 17.5 30H30V17.5ZM30 42.5025C36.8237 42.3237 42.3237 36.8225 42.5 30H30V42.5025Z" fill="#214B64"/>
<path d="M19.4625 16.4926C19.375 15.8763 19.0025 15.3563 18.4312 15.0976C17.8587 14.8376 17.1937 14.9351 16.6887 15.2901C16.6475 15.3213 16.6087 15.3563 16.5712 15.3876C16.655 15.1013 16.68 14.8113 16.6087 14.5226C16.5412 14.2363 16.3912 13.9751 16.18 13.7701C15.7525 13.3513 15.1025 13.2151 14.5425 13.4238C14.28 13.5238 14.0425 13.6938 13.8662 13.9113C13.7662 14.0376 13.6675 14.1601 13.565 14.2888C13.0412 14.9413 12.5175 15.5951 11.995 16.2476C11.545 16.8101 11.0975 17.3726 10.6462 17.9338C10.6162 17.9701 10.5875 18.0113 10.5587 18.0463C10.5562 18.0463 10.6162 18.0926 10.6212 18.0951C10.7962 18.2363 10.9687 18.3751 11.1437 18.5138C11.8037 19.0438 12.4612 19.5726 13.1225 20.1001C13.7737 20.6238 14.4287 21.1463 15.0825 21.6688C15.2487 21.8038 15.4162 21.9363 15.5825 22.0676C15.5875 22.0763 15.6275 22.1138 15.6337 22.1051C15.6675 22.0638 15.7 22.0201 15.7325 21.9813C16.1812 21.4201 16.6312 20.8613 17.0775 20.3001C17.615 19.6263 18.1525 18.9588 18.69 18.2863C18.9675 17.9426 19.2737 17.6126 19.405 17.1813C19.4737 16.9551 19.4862 16.7238 19.4625 16.4926ZM13.6787 18.3851C13.4062 18.1701 13.135 17.9501 12.8637 17.7326C12.76 17.6501 12.6562 17.5688 12.5525 17.4838C12.5487 17.4813 12.66 17.3476 12.6662 17.3401C13.1712 16.7051 13.6787 16.0738 14.185 15.4413C14.3187 15.2776 14.4387 15.0976 14.6437 15.0151C14.9225 14.8976 15.2525 14.9713 15.4562 15.1951C15.6187 15.3751 15.6737 15.6213 15.6212 15.8576C15.56 16.0688 15.4112 16.2213 15.28 16.3876C15.015 16.7226 14.7462 17.0551 14.4812 17.3876C14.2125 17.7176 13.9437 18.0488 13.6787 18.3851ZM17.6925 17.6076C17.52 17.8213 17.35 18.0351 17.1775 18.2501C16.7062 18.8401 16.2337 19.4301 15.7625 20.0176C15.76 20.0201 15.7487 20.0401 15.7437 20.0376C15.7187 20.0176 15.6962 19.9963 15.6725 19.9776C15.5425 19.8751 15.415 19.7738 15.2862 19.6713C15.0637 19.4913 14.84 19.3113 14.6187 19.1338C15.0462 18.5988 15.4762 18.0651 15.9025 17.5301C16.1125 17.2676 16.32 17.0088 16.5287 16.7463C16.6775 16.5613 16.8662 16.4276 17.1137 16.4201C17.4112 16.4126 17.6712 16.5838 17.7975 16.8501C17.9037 17.1101 17.8675 17.3888 17.6925 17.6076ZM45.6375 13.7626L44.4362 12.6476L40.5262 17.7826L41.7287 18.8976L46.015 16.9351L43.1612 20.6876L43.9875 22.1051L49.8525 19.4126L49.025 17.9926L45.6387 19.5451L48.045 16.3876L46.9912 15.0738L43.385 16.7288L45.6375 13.7626ZM28.0875 9.63631L29.46 13.9688H30.5412L31.9112 9.63631L32.055 13.9688L33.5712 14.2113L33.355 7.71131L31.4075 7.46631L30.0012 12.0438L28.5925 7.46631L26.645 7.71131L26.4287 14.2113L27.9437 13.9688L28.0875 9.63631Z" fill="#CFD8DC"/>
</svg>
